# Blender v2.83.3 OBJ File: 'woodenspike.blend'
# www.blender.org
o Cube
v -0.003751 1.456083 -0.086876
v 0.312805 -0.557787 -0.204973
v -0.003751 1.456083 -0.074232
v 0.220015 -0.545544 0.195262
v -0.016395 1.456083 -0.086876
v -0.317028 -0.562408 -0.236462
v -0.016395 1.456083 -0.074232
v -0.192883 -0.543958 0.231949
vt 0.183571 0.988020
vt 0.183571 0.988020
vt 0.164522 0.988020
vt 0.164522 0.988020
vt 0.040135 0.007307
vt -0.015136 0.008086
vt 0.416888 0.000703
vt 0.369447 0.002974
vn 0.0000 1.0000 0.0000
vn 0.0855 0.1429 0.9860
vn -0.9620 0.1237 0.2435
vn 0.0031 -0.9994 0.0352
vn 0.9672 0.1382 0.2133
vn 0.0484 0.0664 -0.9966
s off
f 1/1/1 5/2/1 7/3/1 3/4/1
f 4/5/2 3/4/2 7/3/2 8/6/2
f 8/6/3 7/3/3 5/2/3 6/7/3
f 6/7/4 2/8/4 4/5/4 8/6/4
f 2/8/5 1/1/5 3/4/5 4/5/5
f 6/7/6 5/2/6 1/1/6 2/8/6
